# xmcd
#
# Track frame offsets: 
#        150
#        19583
#        34632
#        53960
#        73765
#        90622
#        107377
#        125879
#        140844
#        156866
#        172110
#
# Disc length: 2528 seconds
#
# Revision: 4
# Processed by: cddbd v1.5.2PL0 Copyright (c) Steve Scherf et al.
# Submitted via: ExactAudioCopy v1.0b3
#
DISCID=9909de0b
DTITLE=Jill Barber - For All Time
DYEAR=2006
DGENRE=Folk/Rock
TTITLE0=Just for Now
TTITLE1=Don't Go Easy (feat. Jim Cuddy)
TTITLE2=When I'm Makin' Love to You
TTITLE3=Ashes to Ashes
TTITLE4=Hard Line
TTITLE5=For All Time
TTITLE6=Legacy
TTITLE7=Two Brown Eyes (feat. Matthew Barber)
TTITLE8=Goodnight Sweetheart
TTITLE9=The Knot
TTITLE10=Starting to Show
EXTD=YEAR: 2006
EXTT0=
EXTT1=
EXTT2=
EXTT3=
EXTT4=
EXTT5=
EXTT6=
EXTT7=
EXTT8=
EXTT9=
EXTT10=
PLAYORDER=
